<svg width="100%" viewBox="0 0 680 180" xmlns="http://www.w3.org/2000/svg">
  <rect x="40" y="30" width="3" height="120" rx="2" fill="#0C447C" opacity="0.7"/>
  <text x="58" y="72" font-family="sans-serif" font-size="28" font-weight="500" fill="#ffffff">Yashika</text>
  <text x="58" y="100" font-family="sans-serif" font-size="13" fill="#aaaaaa">CS Student · Open Source Contributor · Backend &amp; Cloud-Native</text>
  <line x1="58" y1="116" x2="420" y2="116" stroke="#444444" stroke-width="0.5"/>
  <rect x="58" y="128" width="44" height="22" rx="4" fill="#E6F1FB" stroke="#185FA5" stroke-width="0.5"/>
  <text x="80" y="143" font-family="monospace" font-size="11" font-weight="500" fill="#0C447C" text-anchor="middle">Go</text>
  <rect x="110" y="128" width="56" height="22" rx="4" fill="#EAF3DE" stroke="#3B6D11" stroke-width="0.5"/>
  <text x="138" y="143" font-family="monospace" font-size="11" font-weight="500" fill="#27500A" text-anchor="middle">Python</text>
  <rect x="174" y="128" width="56" height="22" rx="4" fill="#E1F5EE" stroke="#0F6E56" stroke-width="0.5"/>
  <text x="202" y="143" font-family="monospace" font-size="11" font-weight="500" fill="#085041" text-anchor="middle">Django</text>
  <rect x="238" y="128" width="84" height="22" rx="4" fill="#E6F1FB" stroke="#185FA5" stroke-width="0.5"/>
  <text x="280" y="143" font-family="monospace" font-size="11" font-weight="500" fill="#0C447C" text-anchor="middle">Kubernetes</text>
  <rect x="330" y="128" width="88" height="22" rx="4" fill="#FAECE7" stroke="#993C1D" stroke-width="0.5"/>
  <text x="374" y="143" font-family="monospace" font-size="11" font-weight="500" fill="#712B13" text-anchor="middle">Prometheus</text>
  <rect x="426" y="128" width="58" height="22" rx="4" fill="#E6F1FB" stroke="#185FA5" stroke-width="0.5"/>
  <text x="455" y="143" font-family="monospace" font-size="11" font-weight="500" fill="#0C447C" text-anchor="middle">Docker</text>
  <rect x="492" y="128" width="50" height="22" rx="4" fill="#F1EFE8" stroke="#5F5E5A" stroke-width="0.5"/>
  <text x="517" y="143" font-family="monospace" font-size="11" font-weight="500" fill="#444441" text-anchor="middle">Linux</text>
  <text x="58" y="175" font-family="sans-serif" font-size="11" fill="#888888">Contributor to prometheus-operator · jaegertracing · volcano-sh · openwisp</text>
</svg>
